<svg width="220" height="220" viewBox="0 0 220 220" fill="none" xmlns="http://www.w3.org/2000/svg">
  <path
    d="M12.0763 86.7877C12.1668 86.4572 12.2571 86.1594 12.3444 85.8971C12.8202 84.4671 12.8579 80.8426 12.8931 77.4485C12.9217 74.6997 12.9487 72.1021 13.2056 70.944C13.4139 70.0049 14.2271 69.0658 15.1923 68.2366C15.3189 69.686 15.638 71.0354 16.5211 72.0574C17.4578 73.1413 18.9312 72.7853 20.4586 72.4162C21.7336 72.1081 23.0462 71.7909 24.1159 72.2944C24.8317 72.6314 25.6133 72.9613 26.4174 73.3008C30.2679 74.9262 34.635 76.7697 34.77 80.6483C34.9189 84.9271 28.6965 86.7125 24.6522 87.7058C22.9062 88.1346 21.2489 87.3915 19.5667 86.6371C18.2211 86.0338 16.8596 85.4233 15.4241 85.3997C14.4172 85.3831 13.548 85.9073 12.6711 86.4361C12.4738 86.5551 12.2761 86.6743 12.0763 86.7877Z"
    fill="url(#paint0_linear_34_1303)" />
  <path
    d="M14.6935 106.986C13.4259 106.314 12.0439 104.795 11.4832 101.425C10.7959 97.2946 10.9313 93.4729 11.3355 90.5153C11.5721 90.426 11.809 90.3358 12.0461 90.2455L12.0466 90.2453C15.6524 88.8718 19.2893 87.4865 22.151 89.6105C25.8955 92.3896 25.6466 99.3001 23.3434 103.34C22.154 105.427 19.5877 105.944 17.0301 106.46C16.2366 106.62 15.444 106.779 14.6935 106.986Z"
    fill="url(#paint1_linear_34_1303)" />
  <path
    d="M40.605 124.12C39.5772 124.226 38.4833 124.24 37.3199 124.142C27.8254 123.35 24.3277 115.731 23.0705 111.07C23.1129 111.081 23.1549 111.093 23.1964 111.105C24.6273 111.53 25.3135 112.986 26.0025 114.449C26.6753 115.876 27.3509 117.31 28.7252 117.795C29.8985 118.209 31.0487 117.431 32.199 116.653C33.3489 115.875 34.4989 115.097 35.6722 115.51C37.0218 115.985 37.4114 117.466 37.8084 118.975C38.0206 119.782 38.2348 120.596 38.5988 121.27C39.1413 122.273 39.873 123.201 40.605 124.12Z"
    fill="url(#paint2_linear_34_1303)" />
  <path
    d="M68.4527 110.954L55.9048 110.917C55.4402 110.916 55.0317 111.217 54.8747 111.655C54.1246 113.748 51.5456 119.741 45.7912 122.623C45.3406 122.382 44.9012 122.146 44.4762 121.93C42.7161 121.034 42.7443 118.825 42.7731 116.572C42.8003 114.445 42.8281 112.279 41.3522 111.142C39.654 109.834 37.2972 110.177 34.9685 110.515C32.4962 110.874 30.0557 111.229 28.4689 109.599C25.7733 106.829 27.2821 102.016 28.4602 98.2583L28.5457 97.9855C28.6362 97.696 28.7272 97.4002 28.8196 97.1001L28.8202 97.0983C30.059 93.0724 31.5403 88.2587 35.4764 87.2045C38.3341 86.4392 40.7887 88.2803 43.2994 90.1636C44.6839 91.202 46.0854 92.2533 47.5811 92.8874C48.5912 93.3156 49.6555 93.5666 50.7101 93.8153C52.3503 94.2021 53.9674 94.5834 55.3219 95.6177C56.9592 96.8679 57.9593 98.5981 58.9771 100.359C59.4262 101.136 59.8787 101.919 60.3909 102.669C61.3946 104.139 62.9688 105.552 64.5339 106.958C66.0102 108.283 67.4785 109.602 68.4527 110.954Z"
    fill="url(#paint3_linear_34_1303)" />
  <path
    d="M119.078 111.103L74.112 110.97C73.9021 110.699 73.7872 110.371 73.7907 109.971C73.8183 106.831 84.4628 98.1809 87.2274 96.6838C89.0143 95.7161 90.549 96.1377 92.1199 96.5693C93.5849 96.9717 95.0813 97.3828 96.8431 96.6838C98.168 96.1581 98.334 94.5671 98.5028 92.9489C98.6631 91.4122 98.826 89.851 99.9865 89.1547C102.096 87.889 105.77 88.4614 107.086 90.5378C107.826 91.7055 107.156 93.1967 106.496 94.6633C105.807 96.1965 105.13 97.7029 106.089 98.7849C107.629 100.524 110.137 100.916 112.611 101.302C115.332 101.727 118.01 102.146 119.314 104.342C120.476 106.299 120.141 108.823 119.078 111.103Z"
    fill="url(#paint4_linear_34_1303)" />
  <path
    d="M146.514 111.183L133.549 111.145C133.688 110.61 133.839 110.071 133.99 109.534C134.962 106.059 135.928 102.608 133.825 100.178C132.162 98.2558 129.276 99.5489 126.391 100.842C123.506 102.135 120.62 103.428 118.959 101.504C117.293 99.5735 120.101 98.1255 123.126 96.565C124.995 95.6014 126.946 94.5949 127.979 93.4056C128.909 92.334 129.396 91.0364 129.891 89.7191C130.077 89.2229 130.264 88.7238 130.477 88.233C131.002 87.02 131.219 85.4509 131.434 83.8988C131.842 80.9462 132.242 78.055 134.739 77.794C136.764 77.5822 137.498 79.8157 138.268 82.1589C138.974 84.3075 139.71 86.5483 141.5 87.0806C143.863 87.7831 146.284 86.6404 148.682 85.5083C151.231 84.3053 153.754 83.1144 156.155 84.1619C160.437 86.0302 165.313 92.4714 162.62 96.2949C160.782 98.9054 157.152 98.7308 153.523 98.5562C149.893 98.3816 146.263 98.207 144.425 100.818C142.682 103.295 144.192 106.39 145.716 109.515C145.988 110.071 146.26 110.628 146.514 111.183Z"
    fill="url(#paint5_linear_34_1303)" />
  <path
    d="M165.853 121.104C160.711 118.16 159.431 113.124 159.083 111.758C159.053 111.637 159.029 111.544 159.011 111.485C161.396 110.218 163.74 109.628 165.735 111.083C168.054 112.775 167.248 115.783 166.4 118.945C166.208 119.661 166.014 120.385 165.853 121.104Z"
    fill="url(#paint6_linear_34_1303)" />
  <path
    d="M184.594 120.305C182.258 122.08 179.015 123.375 174.542 123.28C172.5 123.236 170.727 122.955 169.187 122.506C169.381 120.58 170.278 118.491 171.166 116.426C172.712 112.828 174.227 109.302 171.935 106.83C169.603 104.316 165.623 105.496 161.686 106.663C157.667 107.853 153.694 109.031 151.567 106.251C149.756 103.885 153.013 102.7 156.762 101.336C159.786 100.236 163.131 99.0193 164.391 96.9716C165.427 95.2866 164.737 92.5418 164.109 90.0415C163.371 87.1089 162.719 84.5127 165.035 84.3569C168.41 84.13 170.288 87.22 172.243 90.4359C173.562 92.6062 174.916 94.8338 176.789 96.1379C177.607 96.7079 178.611 96.3865 179.633 96.059C180.181 95.8833 180.735 95.7059 181.269 95.6635C182.705 95.5493 184.321 95.0178 185.929 94.489C189.172 93.4226 192.381 92.3672 194.016 94.7681C195.536 97.0016 192.898 99.088 190.27 101.166C189.038 102.14 187.808 103.112 187.01 104.097C186.559 104.654 185.949 105.102 185.347 105.545C184.354 106.276 183.381 106.991 183.173 108.156C182.76 110.479 183.3 112.965 183.829 115.405C184.193 117.083 184.552 118.739 184.594 120.305Z"
    fill="url(#paint7_linear_34_1303)" />
  <path
    d="M201.447 111.143L194.35 111.49L191.252 111.268C190.727 111.231 190.253 111.588 190.105 112.094C189.777 113.209 189.042 115.219 187.582 117.231C186.584 115.958 185.909 114.611 186.057 113.1C186.499 108.582 191.151 103.197 195.653 103.847C198.469 104.254 199.663 107.024 200.9 109.893C201.08 110.31 201.26 110.729 201.447 111.143Z"
    fill="url(#paint8_linear_34_1303)" />
  <path
    d="M206.621 80.1612C209.882 82.4321 209.864 84.4322 209.853 85.6915C209.852 85.7624 209.852 85.831 209.852 85.8971C209.852 86.5292 210.074 86.939 210.322 87.1998C210.65 87.5433 211 87.9557 211 88.4309V92.7985C211 92.7985 211 105.451 210.426 105.451C210.233 105.451 210.072 105.549 209.944 105.678C209.631 105.994 209.805 106.494 210.161 106.762L210.471 106.995C210.629 107.113 210.754 107.275 210.775 107.472C210.84 108.102 210.614 109.541 207.268 109.764H206.708C206.383 109.764 206.12 110.028 206.12 110.354C206.12 110.668 205.874 110.927 205.56 110.942L202.667 111.083C199.814 108.38 198.768 104.02 198.001 100.073C197.703 98.538 198.286 97.0333 198.866 95.5338C199.473 93.9689 200.076 92.4098 199.674 90.8277C199.257 89.1906 197.604 87.8227 196.036 86.5261C194.006 84.8466 192.12 83.2867 193.254 81.4161C194.389 79.5425 196.752 80.274 199.242 81.0445C201.447 81.7273 203.752 82.4407 205.389 81.3989C205.905 81.0709 206.304 80.6491 206.621 80.1612Z"
    fill="url(#paint9_linear_34_1303)" />
  <path
    d="M187.577 73.5345C189.789 74.1415 191.983 74.7582 194.036 75.3581C193.746 75.5743 193.431 75.791 193.11 76.0115C191.969 76.7972 190.759 77.6301 190.331 78.6596C190.002 79.4495 190.257 80.2939 190.513 81.1441C190.752 81.9386 190.993 82.7382 190.761 83.5032C190.155 85.5057 188.877 87.2032 187.32 88.6029C186.86 89.016 186.402 89.4637 185.94 89.9161C184.022 91.7914 182.021 93.7484 179.459 93.6609C176.44 93.5576 174.247 90.723 172.379 88.3089L172.206 88.0863C172.087 87.9321 171.965 87.7755 171.84 87.6167L171.839 87.6155C170.06 85.3383 167.921 82.6021 168.845 79.9642C169.397 78.3888 171.148 77.804 172.902 77.2181C174.642 76.6367 176.386 76.0543 176.964 74.5017C177.402 73.3238 176.977 71.943 176.33 70.5499C179.335 71.3249 182.835 72.2428 186.345 73.1976C186.51 73.3155 186.696 73.4046 186.911 73.4558C187.126 73.5073 187.349 73.5318 187.577 73.5345Z"
    fill="url(#paint10_linear_34_1303)" />
  <path
    d="M154.793 64.6664C157.519 66.1031 159.379 67.0833 159.614 67.2058C159.742 67.2728 159.896 67.3645 160.074 67.471C161.331 68.221 163.816 69.7043 167.345 68.4693C167.545 68.3992 167.751 68.3805 167.957 68.4314C168.52 68.5706 169.829 68.8957 171.638 69.3525C171.246 72.9885 169.521 76.6244 166.655 78.6858C163.068 81.266 156.364 83.4737 153.785 79.8588C151.747 77.0015 152.704 73.4755 153.689 69.8448C154.156 68.1222 154.63 66.376 154.793 64.6664Z"
    fill="url(#paint11_linear_34_1303)" />
  <path
    d="M126.757 49.8491C126.76 49.8518 126.764 49.8544 126.768 49.8569C126.778 49.8648 126.789 49.8726 126.8 49.8802C126.87 49.9311 126.933 49.9766 127.013 50.0187C128.136 50.6107 136.562 55.054 144.568 59.2757C144.797 60.1665 144.903 61.0793 144.825 62.0212C144.797 62.3583 144.769 62.7191 144.74 63.0982L144.74 63.0989C144.359 68.0406 143.741 76.075 139.517 74.9131C136.213 74.004 135.416 70.3433 134.594 66.5611C133.876 63.265 133.139 59.8766 130.704 58.1366C129.177 57.0451 127.493 58.2977 125.732 59.608C124.178 60.7643 122.564 61.9656 120.943 61.6403C117.127 60.8746 110.317 57.9013 112.053 54.394C113.26 51.9568 116.529 51.8594 119.75 51.7634C122.624 51.6778 125.459 51.5933 126.757 49.8491Z"
    fill="url(#paint12_linear_34_1303)" />
  <path
    d="M85.3416 45.126C91.7273 44.9214 97.7745 44.9453 102.773 45.3513C109.293 45.8809 114.083 46.5188 117.59 47.1487C114.979 49.767 110.592 49.9288 106.561 50.0775C105.842 50.104 105.134 50.1301 104.45 50.1696C102.936 50.2571 101.594 49.5539 100.243 48.846C99.0247 48.2072 97.7986 47.5645 96.4312 47.4955C95.2442 47.4355 94.1133 47.995 93.0009 48.5453C91.6542 49.2116 90.3346 49.8644 88.9756 49.3884C87.3694 48.826 86.5415 47.3129 85.6952 45.7661C85.5784 45.5526 85.4613 45.3384 85.3416 45.126Z"
    fill="url(#paint13_linear_34_1303)" />
  <path
    d="M78.7899 45.4053C79.9711 45.3436 81.1491 45.2876 82.3197 45.2384C82.5285 46.0573 82.5954 47.0789 82.6644 48.1327C82.7735 49.8006 82.8879 51.5491 83.5788 52.7022C83.9138 53.2613 84.6312 53.431 85.3352 53.5975C86.1036 53.7792 86.8561 53.9572 87.0781 54.6336C87.2931 55.2888 86.7532 55.9171 86.223 56.5341C85.6706 57.177 85.1287 57.8075 85.4627 58.4433C86.5168 60.4499 88.5596 62.0092 90.5492 63.5278C93.4144 65.7149 96.1694 67.8178 95.7025 71.0515C95.3935 73.1922 93.1162 72.1701 90.4962 70.9942C88.1733 69.9517 85.581 68.7882 83.852 69.6007C81.6811 70.6208 80.3635 73.5006 79.1279 76.2011C77.5916 79.5589 76.182 82.6396 73.4168 81.524C70.4562 80.3296 71.1722 76.8309 71.94 73.0786C72.5329 70.1812 73.1567 67.1327 72.1429 64.877C71.4631 63.3644 69.7185 62.9083 67.9663 62.4502C66.2505 62.0015 64.5273 61.551 63.7896 60.1047C62.3101 57.2044 61.9865 52.1111 64.8528 50.5854C66.7782 49.5605 68.9385 50.6266 71.1104 51.6985C73.2344 52.7467 75.3695 53.8003 77.307 52.9095C78.8057 52.2205 78.767 49.9688 78.7304 47.8348C78.7155 46.968 78.7009 46.1206 78.7899 45.4053Z"
    fill="url(#paint14_linear_34_1303)" />
  <path
    d="M56.769 47.0661C61.7279 46.6011 67.2157 46.135 72.7899 45.7635C70.1778 48.8783 64.1961 49.7127 60.1383 48.7832C58.8499 48.488 57.7473 47.8789 56.769 47.0661Z"
    fill="url(#paint15_linear_34_1303)" />
  <path
    d="M50.2437 47.7041C49.9457 48.2848 49.5844 48.8933 49.2172 49.5117C47.913 51.7083 46.535 54.0291 47.6576 55.6684C49.1451 57.8405 52.231 58.2063 55.2285 58.5617C58.5453 58.9549 61.7541 59.3353 62.5695 62.136C63.2796 64.5746 60.4401 65.2484 57.3264 65.9873C55.066 66.5238 52.661 67.0945 51.3645 68.3997C50.1965 69.5755 49.7741 71.7939 49.3794 73.8671C48.853 76.6315 48.3759 79.1376 46.2457 78.5692C43.1872 77.7531 42.2579 74.5098 41.2954 71.1505C40.6625 68.9418 40.0153 66.683 38.7391 65.0309C38.0565 64.1471 36.8369 64.0397 35.6744 63.9372C35.4044 63.9134 35.1373 63.8899 34.8808 63.8569C32.774 63.5864 30.498 63.8373 28.2463 64.0855C25.6007 64.3771 22.9886 64.665 20.7235 64.0992C23.8483 61.2141 30.9561 54.674 33.0176 52.7774C33.3572 52.4649 33.4327 51.9628 33.3865 51.5031C33.2989 50.63 33.6758 49.2817 36.7457 49.0895C36.8096 49.0855 36.8804 49.0806 36.958 49.0747C37.949 50.2119 39.0702 51.0658 40.5156 51.209C42.1128 51.3673 43.3995 49.9458 44.5835 48.2923C46.275 48.1132 48.1773 47.9137 50.2437 47.7041Z"
    fill="url(#paint16_linear_34_1303)" />
  <path
    d="M66.1328 101.054C63.7257 100.629 61.8552 98.9721 59.9925 97.322C59.5328 96.9148 59.0736 96.508 58.6069 96.1202C57.976 95.596 57.5433 94.9017 57.1122 94.2097C56.6385 93.4495 56.1666 92.6921 55.4356 92.1664C54.6445 91.5976 53.698 91.3494 52.7573 91.1027C51.6761 90.8192 50.6026 90.5377 49.7819 89.7738C49.3378 89.3605 48.7903 88.9035 48.21 88.4192L48.2095 88.4188C45.728 86.3478 42.6468 83.7763 44.4884 81.9773C45.9734 80.5268 48.3243 81.5375 50.6526 82.5386C53.0157 83.5545 55.3555 84.5605 56.7436 82.9736C58.5099 80.9542 57.8148 77.981 57.1212 75.0139C56.4222 72.0243 55.7248 69.0409 57.5486 67.0462C60.0279 64.3346 65.9322 67.7968 67.5852 71.1163C68.4927 72.9386 67.4108 75.1699 66.3665 77.3239C65.2221 79.6841 64.1227 81.9514 65.7352 83.4858C68.0979 85.734 71.6989 85.5289 75.2588 85.326C79.0223 85.1116 82.7399 84.8998 84.8998 87.5923C87.804 91.2127 82.4567 96.9963 78.7222 99.6751C75.2205 102.187 70.3856 101.806 66.1328 101.054Z"
    fill="url(#paint17_linear_34_1303)" />
  <path
    d="M108.839 56.239C110.07 57.2618 110.273 59.1531 110.469 60.9821C110.695 63.0846 110.912 65.1049 112.671 65.6289C115.31 66.4152 118.031 65.0951 120.719 63.7913C123.618 62.3855 126.477 60.9985 129.153 62.2911C133.124 64.2094 132.642 70.5986 132.057 74.9942C131.498 79.1989 128.876 82.6539 126.312 86.0339L126.309 86.0368C126.181 86.2054 126.054 86.3738 125.926 86.5421C125.233 87.4578 124.565 88.5395 123.884 89.6426C121.767 93.0707 119.523 96.7054 116.004 96.2059C113.064 95.7885 111.681 92.9061 110.264 89.9536C109.014 87.3489 107.738 84.6896 105.344 83.6199C103.463 82.78 101.065 84.0233 98.8077 85.1939C96.2548 86.5176 93.8813 87.7484 92.6381 85.7686C91.1844 83.4533 93.1518 81.1911 95.2374 78.793C96.7997 76.9966 98.4283 75.1239 98.7352 73.0956C98.9617 71.5982 98.1161 70.3083 97.2557 68.9958C96.5486 67.9172 95.8316 66.8233 95.6914 65.5866C95.5702 64.5179 95.3378 63.3558 95.1004 62.1684C94.3211 58.2715 93.4874 54.102 96.3511 52.0659C100.008 49.466 105.386 53.3697 108.839 56.239Z"
    fill="url(#paint18_linear_34_1303)" />
  <path
    d="M13.551 159C13.1443 159 12.7987 158.858 12.514 158.573C12.2293 158.288 12.087 157.943 12.087 157.536V117.154C12.087 116.747 12.2293 116.402 12.514 116.117C12.7987 115.832 13.1443 115.69 13.551 115.69H18.614C19.0207 115.69 19.3663 115.832 19.651 116.117C19.9357 116.402 20.078 116.747 20.078 117.154V157.536C20.078 157.943 19.9357 158.288 19.651 158.573C19.3663 158.858 19.0207 159 18.614 159H13.551ZM41.8336 159.61C37.3196 159.61 33.7409 158.309 31.0976 155.706C28.4542 153.103 27.0309 149.403 26.8276 144.604C26.7869 144.197 26.7666 143.689 26.7666 143.079C26.7666 142.428 26.7869 141.92 26.8276 141.554C26.9902 138.504 27.6816 135.861 28.9016 133.624C30.1622 131.387 31.8906 129.679 34.0866 128.5C36.2826 127.28 38.8649 126.67 41.8336 126.67C45.1276 126.67 47.8929 127.361 50.1296 128.744C52.3662 130.086 54.0539 131.977 55.1926 134.417C56.3312 136.816 56.9006 139.602 56.9006 142.774V144.055C56.9006 144.462 56.7582 144.807 56.4736 145.092C56.1889 145.377 55.8229 145.519 55.3756 145.519H35.1236C35.1236 145.519 35.1236 145.58 35.1236 145.702C35.1236 145.824 35.1236 145.926 35.1236 146.007C35.1642 147.43 35.4286 148.752 35.9166 149.972C36.4452 151.151 37.1976 152.107 38.1736 152.839C39.1902 153.571 40.3899 153.937 41.7726 153.937C42.9112 153.937 43.8669 153.774 44.6396 153.449C45.4122 153.083 46.0426 152.676 46.5306 152.229C47.0186 151.782 47.3642 151.416 47.5676 151.131C47.9336 150.643 48.2182 150.358 48.4216 150.277C48.6656 150.155 49.0112 150.094 49.4586 150.094H54.7046C55.1112 150.094 55.4366 150.216 55.6806 150.46C55.9652 150.704 56.0872 151.009 56.0466 151.375C56.0059 152.026 55.6602 152.819 55.0096 153.754C54.3996 154.689 53.5049 155.604 52.3256 156.499C51.1462 157.394 49.6619 158.146 47.8726 158.756C46.1239 159.325 44.1109 159.61 41.8336 159.61ZM35.1236 140.395H48.6046V140.212C48.6046 138.626 48.3402 137.243 47.8116 136.064C47.2829 134.885 46.5102 133.949 45.4936 133.258C44.4769 132.567 43.2569 132.221 41.8336 132.221C40.4102 132.221 39.1902 132.567 38.1736 133.258C37.1569 133.949 36.3842 134.885 35.8556 136.064C35.3676 137.243 35.1236 138.626 35.1236 140.212V140.395ZM77.0396 159.61C72.5256 159.61 68.9469 158.309 66.3036 155.706C63.6603 153.103 62.2369 149.403 62.0336 144.604C61.9929 144.197 61.9726 143.689 61.9726 143.079C61.9726 142.428 61.9929 141.92 62.0336 141.554C62.1963 138.504 62.8876 135.861 64.1076 133.624C65.3683 131.387 67.0966 129.679 69.2926 128.5C71.4886 127.28 74.0709 126.67 77.0396 126.67C80.3336 126.67 83.0989 127.361 85.3356 128.744C87.5723 130.086 89.2599 131.977 90.3986 134.417C91.5373 136.816 92.1066 139.602 92.1066 142.774V144.055C92.1066 144.462 91.9643 144.807 91.6796 145.092C91.3949 145.377 91.0289 145.519 90.5816 145.519H70.3296C70.3296 145.519 70.3296 145.58 70.3296 145.702C70.3296 145.824 70.3296 145.926 70.3296 146.007C70.3703 147.43 70.6346 148.752 71.1226 149.972C71.6513 151.151 72.4036 152.107 73.3796 152.839C74.3963 153.571 75.5959 153.937 76.9786 153.937C78.1173 153.937 79.0729 153.774 79.8456 153.449C80.6183 153.083 81.2486 152.676 81.7366 152.229C82.2246 151.782 82.5703 151.416 82.7736 151.131C83.1396 150.643 83.4243 150.358 83.6276 150.277C83.8716 150.155 84.2173 150.094 84.6646 150.094H89.9106C90.3173 150.094 90.6426 150.216 90.8866 150.46C91.1713 150.704 91.2933 151.009 91.2526 151.375C91.2119 152.026 90.8663 152.819 90.2156 153.754C89.6056 154.689 88.7109 155.604 87.5316 156.499C86.3523 157.394 84.8679 158.146 83.0786 158.756C81.3299 159.325 79.3169 159.61 77.0396 159.61ZM70.3296 140.395H83.8106V140.212C83.8106 138.626 83.5463 137.243 83.0176 136.064C82.4889 134.885 81.7163 133.949 80.6996 133.258C79.6829 132.567 78.4629 132.221 77.0396 132.221C75.6163 132.221 74.3963 132.567 73.3796 133.258C72.3629 133.949 71.5903 134.885 71.0616 136.064C70.5736 137.243 70.3296 138.626 70.3296 140.212V140.395ZM106.35 159C105.781 159 105.354 158.858 105.069 158.573C104.784 158.288 104.54 157.922 104.337 157.475L95.6141 129.171C95.5734 128.968 95.5531 128.785 95.5531 128.622C95.5531 128.256 95.6751 127.951 95.9191 127.707C96.2038 127.422 96.5088 127.28 96.8341 127.28H101.348C101.836 127.28 102.222 127.422 102.507 127.707C102.792 127.951 102.954 128.195 102.995 128.439L108.973 148.63L115.317 128.622C115.398 128.337 115.581 128.053 115.866 127.768C116.151 127.443 116.578 127.28 117.147 127.28H120.197C120.766 127.28 121.193 127.443 121.478 127.768C121.763 128.053 121.946 128.337 122.027 128.622L128.371 148.63L134.349 128.439C134.39 128.195 134.532 127.951 134.776 127.707C135.061 127.422 135.447 127.28 135.935 127.28H140.449C140.815 127.28 141.12 127.422 141.364 127.707C141.649 127.951 141.791 128.256 141.791 128.622C141.791 128.785 141.75 128.968 141.669 129.171L132.946 157.475C132.824 157.922 132.6 158.288 132.275 158.573C131.99 158.858 131.563 159 130.994 159H127.029C126.46 159 126.012 158.858 125.687 158.573C125.362 158.288 125.138 157.922 125.016 157.475L118.672 138.199L112.328 157.475C112.165 157.922 111.921 158.288 111.596 158.573C111.311 158.858 110.864 159 110.254 159H106.35ZM155.985 159.61C153.87 159.61 151.959 159.203 150.251 158.39C148.543 157.536 147.181 156.418 146.164 155.035C145.188 153.612 144.7 152.026 144.7 150.277C144.7 147.43 145.839 145.173 148.116 143.506C150.434 141.798 153.484 140.659 157.266 140.09L165.623 138.87V137.589C165.623 135.881 165.196 134.559 164.342 133.624C163.488 132.689 162.024 132.221 159.95 132.221C158.486 132.221 157.286 132.526 156.351 133.136C155.456 133.705 154.785 134.478 154.338 135.454C154.013 135.983 153.545 136.247 152.935 136.247H148.116C147.669 136.247 147.323 136.125 147.079 135.881C146.876 135.637 146.774 135.312 146.774 134.905C146.815 134.254 147.079 133.461 147.567 132.526C148.055 131.591 148.828 130.696 149.885 129.842C150.942 128.947 152.305 128.195 153.972 127.585C155.639 126.975 157.652 126.67 160.011 126.67C162.573 126.67 164.728 126.995 166.477 127.646C168.266 128.256 169.69 129.09 170.747 130.147C171.804 131.204 172.577 132.445 173.065 133.868C173.553 135.291 173.797 136.796 173.797 138.382V157.536C173.797 157.943 173.655 158.288 173.37 158.573C173.085 158.858 172.74 159 172.333 159H167.392C166.945 159 166.579 158.858 166.294 158.573C166.05 158.288 165.928 157.943 165.928 157.536V155.157C165.399 155.93 164.688 156.662 163.793 157.353C162.898 158.004 161.8 158.553 160.499 159C159.238 159.407 157.734 159.61 155.985 159.61ZM158.059 153.815C159.482 153.815 160.763 153.51 161.902 152.9C163.081 152.29 163.996 151.355 164.647 150.094C165.338 148.793 165.684 147.166 165.684 145.214V143.933L159.584 144.909C157.185 145.275 155.395 145.865 154.216 146.678C153.037 147.491 152.447 148.488 152.447 149.667C152.447 150.562 152.711 151.334 153.24 151.985C153.809 152.595 154.521 153.063 155.375 153.388C156.229 153.673 157.124 153.815 158.059 153.815ZM186.523 170.59C186.197 170.59 185.913 170.468 185.669 170.224C185.425 169.98 185.303 169.695 185.303 169.37C185.303 169.207 185.303 169.045 185.303 168.882C185.343 168.76 185.425 168.597 185.547 168.394L190.305 157.109L178.593 129.476C178.43 129.069 178.349 128.785 178.349 128.622C178.389 128.256 178.532 127.951 178.776 127.707C179.02 127.422 179.325 127.28 179.691 127.28H184.632C185.12 127.28 185.486 127.402 185.73 127.646C185.974 127.89 186.157 128.154 186.279 128.439L194.392 148.386L202.749 128.439C202.871 128.114 203.054 127.849 203.298 127.646C203.542 127.402 203.908 127.28 204.396 127.28H209.276C209.601 127.28 209.886 127.402 210.13 127.646C210.414 127.89 210.557 128.175 210.557 128.5C210.557 128.744 210.475 129.069 210.313 129.476L193.05 169.431C192.887 169.756 192.684 170.021 192.44 170.224C192.196 170.468 191.83 170.59 191.342 170.59H186.523Z"
    fill="url(#paint19_linear_34_1303)" />
  <defs>
    <linearGradient id="paint0_linear_34_1303" x1="14.6176" y1="97.5464" x2="206.607" y2="99.3521"
      gradientUnits="userSpaceOnUse">
      <stop stop-color="#EC7363" />
      <stop offset="1" stop-color="#EA6290" />
    </linearGradient>
    <linearGradient id="paint1_linear_34_1303" x1="14.6176" y1="97.5464" x2="206.607" y2="99.3521"
      gradientUnits="userSpaceOnUse">
      <stop stop-color="#EC7363" />
      <stop offset="1" stop-color="#EA6290" />
    </linearGradient>
    <linearGradient id="paint2_linear_34_1303" x1="14.6176" y1="97.5464" x2="206.607" y2="99.3521"
      gradientUnits="userSpaceOnUse">
      <stop stop-color="#EC7363" />
      <stop offset="1" stop-color="#EA6290" />
    </linearGradient>
    <linearGradient id="paint3_linear_34_1303" x1="14.6176" y1="97.5464" x2="206.607" y2="99.3521"
      gradientUnits="userSpaceOnUse">
      <stop stop-color="#EC7363" />
      <stop offset="1" stop-color="#EA6290" />
    </linearGradient>
    <linearGradient id="paint4_linear_34_1303" x1="14.6176" y1="97.5464" x2="206.607" y2="99.3521"
      gradientUnits="userSpaceOnUse">
      <stop stop-color="#EC7363" />
      <stop offset="1" stop-color="#EA6290" />
    </linearGradient>
    <linearGradient id="paint5_linear_34_1303" x1="14.6176" y1="97.5464" x2="206.607" y2="99.3521"
      gradientUnits="userSpaceOnUse">
      <stop stop-color="#EC7363" />
      <stop offset="1" stop-color="#EA6290" />
    </linearGradient>
    <linearGradient id="paint6_linear_34_1303" x1="14.6176" y1="97.5464" x2="206.607" y2="99.3521"
      gradientUnits="userSpaceOnUse">
      <stop stop-color="#EC7363" />
      <stop offset="1" stop-color="#EA6290" />
    </linearGradient>
    <linearGradient id="paint7_linear_34_1303" x1="14.6176" y1="97.5464" x2="206.607" y2="99.3521"
      gradientUnits="userSpaceOnUse">
      <stop stop-color="#EC7363" />
      <stop offset="1" stop-color="#EA6290" />
    </linearGradient>
    <linearGradient id="paint8_linear_34_1303" x1="14.6176" y1="97.5464" x2="206.607" y2="99.3521"
      gradientUnits="userSpaceOnUse">
      <stop stop-color="#EC7363" />
      <stop offset="1" stop-color="#EA6290" />
    </linearGradient>
    <linearGradient id="paint9_linear_34_1303" x1="14.6176" y1="97.5464" x2="206.607" y2="99.3521"
      gradientUnits="userSpaceOnUse">
      <stop stop-color="#EC7363" />
      <stop offset="1" stop-color="#EA6290" />
    </linearGradient>
    <linearGradient id="paint10_linear_34_1303" x1="14.6176" y1="97.5464" x2="206.607" y2="99.3521"
      gradientUnits="userSpaceOnUse">
      <stop stop-color="#EC7363" />
      <stop offset="1" stop-color="#EA6290" />
    </linearGradient>
    <linearGradient id="paint11_linear_34_1303" x1="14.6176" y1="97.5464" x2="206.607" y2="99.3521"
      gradientUnits="userSpaceOnUse">
      <stop stop-color="#EC7363" />
      <stop offset="1" stop-color="#EA6290" />
    </linearGradient>
    <linearGradient id="paint12_linear_34_1303" x1="14.6176" y1="97.5464" x2="206.607" y2="99.3521"
      gradientUnits="userSpaceOnUse">
      <stop stop-color="#EC7363" />
      <stop offset="1" stop-color="#EA6290" />
    </linearGradient>
    <linearGradient id="paint13_linear_34_1303" x1="14.6176" y1="97.5464" x2="206.607" y2="99.3521"
      gradientUnits="userSpaceOnUse">
      <stop stop-color="#EC7363" />
      <stop offset="1" stop-color="#EA6290" />
    </linearGradient>
    <linearGradient id="paint14_linear_34_1303" x1="14.6176" y1="97.5464" x2="206.607" y2="99.3521"
      gradientUnits="userSpaceOnUse">
      <stop stop-color="#EC7363" />
      <stop offset="1" stop-color="#EA6290" />
    </linearGradient>
    <linearGradient id="paint15_linear_34_1303" x1="14.6176" y1="97.5464" x2="206.607" y2="99.3521"
      gradientUnits="userSpaceOnUse">
      <stop stop-color="#EC7363" />
      <stop offset="1" stop-color="#EA6290" />
    </linearGradient>
    <linearGradient id="paint16_linear_34_1303" x1="14.6176" y1="97.5464" x2="206.607" y2="99.3521"
      gradientUnits="userSpaceOnUse">
      <stop stop-color="#EC7363" />
      <stop offset="1" stop-color="#EA6290" />
    </linearGradient>
    <linearGradient id="paint17_linear_34_1303" x1="14.6176" y1="97.5464" x2="206.607" y2="99.3521"
      gradientUnits="userSpaceOnUse">
      <stop stop-color="#EC7363" />
      <stop offset="1" stop-color="#EA6290" />
    </linearGradient>
    <linearGradient id="paint18_linear_34_1303" x1="14.6176" y1="97.5464" x2="206.607" y2="99.3521"
      gradientUnits="userSpaceOnUse">
      <stop stop-color="#EC7363" />
      <stop offset="1" stop-color="#EA6290" />
    </linearGradient>
    <linearGradient id="paint19_linear_34_1303" x1="11.6899" y1="149.765" x2="207.515" y2="151.831"
      gradientUnits="userSpaceOnUse">
      <stop stop-color="#EA6290" />
      <stop offset="1" stop-color="#EC7363" />
    </linearGradient>
  </defs>
</svg>
