<svg width="512" height="512" viewBox="0 0 512 512" fill="none" xmlns="http://www.w3.org/2000/svg">
  <path
    d="M40.3518 210.27C40.5495 209.548 40.7467 208.897 40.9375 208.324C41.9772 205.201 42.0595 197.285 42.1365 189.872C42.1989 183.868 42.2579 178.194 42.8192 175.665C43.2745 173.614 45.0511 171.563 47.1603 169.752C47.4368 172.917 48.1341 175.865 50.0637 178.097C52.1103 180.464 55.3296 179.687 58.6671 178.88C61.4529 178.207 64.321 177.515 66.6581 178.614C68.2222 179.35 69.93 180.071 71.687 180.812C80.1004 184.363 89.6425 188.389 89.9374 196.86C90.2628 206.206 76.6668 210.105 67.8301 212.275C64.0151 213.211 60.3939 211.588 56.7182 209.941C53.7782 208.623 50.8033 207.289 47.6666 207.238C45.4666 207.202 43.5675 208.347 41.6515 209.502C41.2203 209.762 40.7883 210.022 40.3518 210.27Z"
    fill="url(#paint0_linear_504_1305)" />
  <path
    d="M46.0704 254.385C43.3006 252.917 40.2808 249.6 39.0557 242.24C37.554 233.218 37.8499 224.871 38.733 218.411C39.25 218.216 39.7677 218.019 40.2858 217.822L40.2869 217.821C48.1655 214.822 56.1121 211.796 62.3649 216.435C70.5468 222.505 70.0028 237.598 64.9703 246.423C62.3716 250.979 56.7641 252.109 51.1759 253.235C49.442 253.585 47.7101 253.934 46.0704 254.385Z"
    fill="url(#paint1_linear_504_1305)" />
  <path
    d="M102.687 291.807C100.441 292.039 98.0511 292.069 95.5089 291.857C74.7635 290.126 67.121 273.486 64.374 263.304C64.4667 263.33 64.5584 263.356 64.6491 263.383C67.7757 264.31 69.2749 267.49 70.7806 270.684C72.2506 273.803 73.7268 276.934 76.7296 277.994C79.2933 278.899 81.8065 277.199 84.3199 275.499C86.8323 273.8 89.345 272.101 91.9087 273.003C94.8576 274.04 95.7089 277.275 96.5764 280.571C97.0399 282.333 97.5081 284.112 98.3034 285.582C99.4888 287.774 101.088 289.801 102.687 291.807Z"
    fill="url(#paint2_linear_504_1305)" />
  <path
    d="M163.534 263.051L136.117 262.971C135.102 262.968 134.209 263.626 133.866 264.583C132.227 269.154 126.592 282.245 114.019 288.539C113.034 288.011 112.074 287.497 111.145 287.025C107.3 285.067 107.361 280.242 107.424 275.322C107.484 270.677 107.544 265.946 104.32 263.463C100.609 260.606 95.4593 261.354 90.3711 262.093C84.9692 262.878 79.6367 263.652 76.1696 260.092C70.2796 254.043 73.5764 243.531 76.1505 235.323L76.3372 234.727C76.5352 234.095 76.734 233.449 76.9358 232.793L76.937 232.789C79.644 223.996 82.8806 213.482 91.4809 211.18C97.725 209.508 103.088 213.53 108.574 217.643C111.599 219.911 114.662 222.207 117.93 223.592C120.137 224.527 122.462 225.075 124.767 225.619C128.351 226.463 131.884 227.296 134.843 229.555C138.421 232.286 140.606 236.065 142.83 239.911C143.811 241.607 144.8 243.317 145.919 244.956C148.112 248.167 151.552 251.254 154.972 254.323C158.197 257.219 161.406 260.098 163.534 263.051Z"
    fill="url(#paint3_linear_504_1305)" />
  <path
    d="M274.151 263.376L175.9 263.088C175.441 262.495 175.19 261.779 175.198 260.905C175.258 254.047 198.516 235.154 204.557 231.884C208.461 229.77 211.815 230.691 215.247 231.634C218.448 232.513 221.718 233.411 225.567 231.884C228.462 230.736 228.825 227.261 229.194 223.726C229.544 220.37 229.9 216.96 232.436 215.439C237.044 212.675 245.073 213.925 247.948 218.46C249.565 221.011 248.1 224.268 246.66 227.471C245.154 230.82 243.675 234.11 245.769 236.473C249.134 240.271 254.615 241.127 260.021 241.971C265.965 242.899 271.818 243.813 274.666 248.61C277.206 252.886 276.472 258.397 274.151 263.376Z"
    fill="url(#paint4_linear_504_1305)" />
  <path
    d="M334.098 263.552L305.769 263.469C306.074 262.3 306.403 261.124 306.732 259.95C308.857 252.359 310.967 244.823 306.372 239.515C302.739 235.317 296.434 238.142 290.13 240.966C283.825 243.79 277.52 246.614 273.891 242.412C270.25 238.195 276.385 235.033 282.996 231.624C287.079 229.52 291.343 227.322 293.598 224.724C295.63 222.383 296.695 219.549 297.776 216.672C298.183 215.588 298.593 214.498 299.057 213.426C300.205 210.777 300.679 207.35 301.148 203.96C302.04 197.511 302.914 191.196 308.37 190.626C312.795 190.164 314.398 195.042 316.08 200.16C317.623 204.852 319.232 209.747 323.143 210.909C328.305 212.444 333.595 209.948 338.835 207.475C344.404 204.848 349.917 202.247 355.163 204.534C364.52 208.615 375.174 222.683 369.29 231.034C365.274 236.736 357.343 236.355 349.412 235.973C341.481 235.592 333.55 235.211 329.534 240.913C325.725 246.323 329.025 253.084 332.355 259.908C332.949 261.123 333.543 262.34 334.098 263.552Z"
    fill="url(#paint5_linear_504_1305)" />
  <path
    d="M376.355 285.221C365.118 278.79 362.321 267.791 361.562 264.807C361.495 264.543 361.444 264.341 361.404 264.212C366.614 261.444 371.737 260.155 376.096 263.334C381.163 267.029 379.401 273.598 377.549 280.504C377.13 282.069 376.705 283.651 376.355 285.221Z"
    fill="url(#paint6_linear_504_1305)" />
  <path
    d="M417.303 283.476C412.198 287.351 405.113 290.181 395.338 289.973C390.877 289.878 387.003 289.264 383.639 288.283C384.063 284.075 386.023 279.514 387.962 275.004C391.34 267.145 394.65 259.443 389.642 254.045C384.548 248.555 375.851 251.131 367.249 253.679C358.468 256.28 349.786 258.852 345.138 252.781C341.182 247.612 348.299 245.024 356.489 242.046C363.098 239.642 370.406 236.985 373.158 232.512C375.423 228.832 373.916 222.837 372.542 217.376C370.932 210.971 369.506 205.301 374.567 204.96C381.94 204.465 386.044 211.214 390.316 218.238C393.198 222.978 396.157 227.843 400.248 230.692C402.036 231.937 404.229 231.234 406.463 230.519C407.661 230.135 408.871 229.748 410.037 229.655C413.176 229.406 416.707 228.245 420.22 227.09C427.306 224.761 434.318 222.456 437.889 227.7C441.212 232.578 435.446 237.135 429.704 241.673C427.012 243.801 424.325 245.924 422.583 248.074C421.597 249.292 420.264 250.271 418.949 251.238C416.778 252.834 414.651 254.397 414.199 256.94C413.297 262.013 414.475 267.443 415.632 272.773C416.427 276.438 417.212 280.055 417.303 283.476Z"
    fill="url(#paint7_linear_504_1305)" />
  <path
    d="M454.126 263.465L438.619 264.222L431.85 263.738C430.703 263.656 429.669 264.437 429.344 265.541C428.628 267.978 427.022 272.368 423.831 276.762C421.65 273.98 420.176 271.04 420.499 267.739C421.465 257.872 431.631 246.109 441.467 247.529C447.62 248.417 450.229 254.467 452.931 260.734C453.324 261.645 453.719 262.56 454.126 263.465Z"
    fill="url(#paint8_linear_504_1305)" />
  <path
    d="M465.432 195.796C472.557 200.756 472.518 205.125 472.494 207.875C472.492 208.03 472.491 208.18 472.491 208.324C472.491 209.705 472.976 210.6 473.519 211.17C474.235 211.92 475 212.821 475 213.858V223.398C475 223.398 475 251.033 473.745 251.033C473.324 251.033 472.973 251.246 472.693 251.528C472.009 252.219 472.388 253.311 473.166 253.895L473.845 254.405C474.19 254.664 474.463 255.017 474.507 255.446C474.651 256.823 474.157 259.966 466.846 260.454H465.622C464.912 260.454 464.337 261.03 464.337 261.74C464.337 262.427 463.799 262.992 463.114 263.026L456.793 263.334C450.559 257.429 448.273 247.907 446.598 239.287C445.946 235.934 447.219 232.647 448.488 229.372C449.812 225.954 451.132 222.549 450.252 219.093C449.342 215.518 445.729 212.53 442.304 209.698C437.867 206.03 433.747 202.623 436.224 198.537C438.706 194.445 443.869 196.043 449.308 197.726C454.127 199.217 459.163 200.775 462.741 198.5C463.867 197.783 464.739 196.862 465.432 195.796Z"
    fill="url(#paint9_linear_504_1305)" />
  <path
    d="M423.822 181.323C428.655 182.649 433.447 183.996 437.934 185.306C437.299 185.778 436.611 186.252 435.911 186.733C433.417 188.449 430.773 190.268 429.838 192.517C429.12 194.242 429.676 196.086 430.235 197.943C430.758 199.679 431.284 201.425 430.778 203.096C429.453 207.47 426.661 211.177 423.258 214.234C422.254 215.136 421.254 216.114 420.243 217.102C416.053 221.198 411.68 225.473 406.083 225.281C399.486 225.056 394.694 218.865 390.612 213.592L390.236 213.106C389.975 212.769 389.708 212.427 389.436 212.08L389.434 212.078C385.546 207.104 380.873 201.128 382.892 195.366C384.097 191.925 387.923 190.648 391.755 189.368C395.559 188.098 399.369 186.826 400.631 183.435C401.588 180.863 400.66 177.847 399.245 174.804C405.813 176.497 413.459 178.502 421.128 180.587C421.49 180.845 421.897 181.039 422.365 181.151C422.835 181.263 423.322 181.317 423.822 181.323Z"
    fill="url(#paint10_linear_504_1305)" />
  <path
    d="M352.189 161.954C358.144 165.092 362.209 167.233 362.721 167.5C363.001 167.647 363.337 167.847 363.727 168.079C366.472 169.718 371.903 172.957 379.614 170.26C380.051 170.107 380.502 170.066 380.952 170.177C382.181 170.481 385.042 171.191 388.994 172.189C388.138 180.13 384.369 188.072 378.106 192.574C370.268 198.209 355.62 203.031 349.986 195.136C345.532 188.895 347.623 181.194 349.775 173.264C350.796 169.502 351.832 165.688 352.189 161.954Z"
    fill="url(#paint11_linear_504_1305)" />
  <path
    d="M290.928 129.591C290.936 129.597 290.944 129.603 290.952 129.608C290.976 129.625 290.999 129.642 291.023 129.659C291.177 129.77 291.314 129.869 291.489 129.962C293.942 131.254 312.352 140.959 329.847 150.18C330.347 152.126 330.577 154.119 330.407 156.177C330.346 156.913 330.285 157.701 330.221 158.529L330.221 158.53C329.39 169.323 328.038 186.872 318.81 184.334C311.59 182.348 309.85 174.353 308.052 166.092C306.485 158.893 304.874 151.492 299.554 147.692C296.217 145.308 292.538 148.044 288.69 150.906C285.295 153.431 281.767 156.055 278.225 155.344C269.888 153.672 255.008 147.178 258.801 139.518C261.437 134.195 268.581 133.982 275.619 133.772C281.898 133.585 288.094 133.401 290.928 129.591Z"
    fill="url(#paint12_linear_504_1305)" />
  <path
    d="M200.437 119.275C214.389 118.828 227.602 118.881 238.524 119.767C252.771 120.924 263.236 122.317 270.898 123.693C265.194 129.412 255.609 129.765 246.8 130.09C245.23 130.148 243.684 130.205 242.189 130.291C238.879 130.482 235.948 128.946 232.997 127.4C230.334 126.005 227.655 124.601 224.667 124.45C222.074 124.32 219.603 125.541 217.172 126.743C214.229 128.199 211.346 129.624 208.377 128.585C204.867 127.356 203.058 124.052 201.209 120.673C200.954 120.207 200.698 119.739 200.437 119.275Z"
    fill="url(#paint13_linear_504_1305)" />
  <path
    d="M186.121 119.885C188.702 119.75 191.276 119.628 193.834 119.521C194.29 121.309 194.436 123.541 194.587 125.842C194.825 129.485 195.075 133.304 196.585 135.823C197.317 137.044 198.884 137.414 200.422 137.778C202.101 138.175 203.746 138.564 204.231 140.041C204.7 141.472 203.521 142.844 202.362 144.192C201.155 145.596 199.971 146.973 200.701 148.362C203.004 152.745 207.468 156.15 211.815 159.467C218.075 164.244 224.095 168.837 223.075 175.9C222.4 180.575 217.424 178.343 211.699 175.775C206.624 173.498 200.959 170.956 197.182 172.731C192.438 174.959 189.559 181.249 186.859 187.147C183.503 194.481 180.423 201.21 174.381 198.773C167.912 196.164 169.476 188.523 171.154 180.327C172.449 173.999 173.812 167.34 171.597 162.414C170.112 159.11 166.3 158.114 162.471 157.113C158.722 156.133 154.957 155.149 153.345 151.991C150.113 145.656 149.406 134.532 155.668 131.199C159.875 128.961 164.596 131.289 169.341 133.63C173.982 135.92 178.647 138.221 182.881 136.275C186.155 134.771 186.071 129.853 185.991 125.192C185.958 123.298 185.927 121.448 186.121 119.885Z"
    fill="url(#paint14_linear_504_1305)" />
  <path
    d="M138.005 123.513C148.84 122.497 160.831 121.479 173.011 120.668C167.303 127.471 154.233 129.293 145.367 127.263C142.552 126.618 140.143 125.288 138.005 123.513Z"
    fill="url(#paint15_linear_504_1305)" />
  <path
    d="M123.748 124.906C123.096 126.174 122.307 127.503 121.505 128.854C118.655 133.652 115.644 138.721 118.097 142.301C121.347 147.045 128.09 147.844 134.639 148.62C141.887 149.479 148.898 150.31 150.679 156.427C152.231 161.753 146.027 163.225 139.223 164.839C134.284 166.011 129.029 167.257 126.196 170.108C123.644 172.676 122.721 177.521 121.859 182.049C120.709 188.087 119.666 193.561 115.012 192.319C108.329 190.537 106.299 183.453 104.195 176.116C102.813 171.292 101.398 166.358 98.6099 162.75C97.1184 160.82 94.4537 160.585 91.9137 160.361C91.3237 160.309 90.7399 160.258 90.1796 160.186C85.5761 159.595 80.6032 160.143 75.6832 160.685C69.9025 161.322 64.195 161.951 59.2459 160.715C66.0736 154.414 81.6042 140.129 86.1085 135.987C86.8506 135.304 87.0154 134.208 86.9146 133.204C86.7231 131.297 87.5467 128.352 94.2544 127.932C94.394 127.923 94.5487 127.913 94.7181 127.9C96.8835 130.384 99.3333 132.248 102.492 132.561C105.981 132.907 108.793 129.802 111.38 126.191C115.076 125.8 119.232 125.364 123.748 124.906Z"
    fill="url(#paint16_linear_504_1305)" />
  <path
    d="M158.465 241.43C153.206 240.501 149.119 236.882 145.049 233.278C144.044 232.388 143.041 231.5 142.021 230.653C140.643 229.508 139.697 227.991 138.755 226.48C137.72 224.82 136.689 223.166 135.092 222.017C133.363 220.775 131.295 220.233 129.24 219.694C126.877 219.075 124.532 218.46 122.738 216.792C121.768 215.889 120.572 214.891 119.304 213.833L119.303 213.832C113.881 209.309 107.148 203.692 111.172 199.763C114.417 196.595 119.554 198.803 124.641 200.989C129.804 203.208 134.917 205.405 137.95 201.939C141.809 197.528 140.29 191.035 138.775 184.554C137.248 178.024 135.724 171.508 139.709 167.152C145.126 161.229 158.027 168.791 161.639 176.041C163.622 180.021 161.258 184.895 158.976 189.599C156.475 194.754 154.073 199.707 157.596 203.058C162.759 207.968 170.627 207.52 178.405 207.077C186.629 206.609 194.752 206.146 199.471 212.027C205.817 219.934 194.133 232.566 185.973 238.417C178.322 243.903 167.758 243.071 158.465 241.43Z"
    fill="url(#paint17_linear_504_1305)" />
  <path
    d="M251.778 143.547C254.467 145.781 254.911 149.912 255.34 153.907C255.833 158.499 256.307 162.912 260.151 164.056C265.917 165.773 271.864 162.89 277.737 160.043C284.07 156.972 290.318 153.943 296.164 156.766C304.841 160.956 303.788 174.91 302.51 184.511C301.287 193.695 295.559 201.241 289.956 208.623L289.951 208.63C289.671 208.998 289.392 209.366 289.114 209.733C287.6 211.733 286.14 214.096 284.652 216.505C280.026 223.992 275.122 231.931 267.435 230.84C261.01 229.928 257.988 223.633 254.892 217.184C252.161 211.495 249.373 205.687 244.141 203.351C240.032 201.516 234.793 204.232 229.86 206.789C224.282 209.68 219.096 212.368 216.379 208.044C213.203 202.987 217.502 198.046 222.059 192.808C225.472 188.885 229.031 184.794 229.701 180.364C230.196 177.094 228.349 174.276 226.469 171.41C224.924 169.054 223.357 166.665 223.051 163.964C222.786 161.63 222.278 159.091 221.759 156.498C220.057 147.987 218.235 138.88 224.492 134.433C232.482 128.754 244.234 137.281 251.778 143.547Z"
    fill="url(#paint18_linear_504_1305)" />
  <path
    d="M43.2014 368.456C42.3121 368.456 41.5562 368.142 40.9337 367.514C40.3112 366.887 40 366.125 40 365.229V276.227C40 275.33 40.3112 274.569 40.9337 273.941C41.5562 273.314 42.3121 273 43.2014 273H54.2728C55.1621 273 55.918 273.314 56.5404 273.941C57.1629 274.569 57.4742 275.33 57.4742 276.227V365.229C57.4742 366.125 57.1629 366.887 56.5404 367.514C55.918 368.142 55.1621 368.456 54.2728 368.456H43.2014Z"
    fill="url(#paint19_linear_504_1305)" />
  <path
    d="M105.048 369.8C95.1768 369.8 87.3512 366.932 81.571 361.196C75.7907 355.459 72.6783 347.303 72.2336 336.727C72.1447 335.83 72.1002 334.71 72.1002 333.366C72.1002 331.931 72.1447 330.811 72.2336 330.004C72.5893 323.193 74.1011 317.367 76.7689 312.527C79.5257 307.597 83.3051 303.833 88.1071 301.233C92.9092 298.544 98.5561 297.2 105.048 297.2C112.251 297.2 118.298 298.724 123.189 301.771C128.08 304.729 131.77 308.897 134.26 314.274C136.75 319.563 137.995 325.702 137.995 332.693V335.517C137.995 336.413 137.684 337.175 137.061 337.802C136.439 338.43 135.639 338.743 134.66 338.743H90.3748C90.3748 338.743 90.3748 338.878 90.3748 339.147C90.3748 339.416 90.3748 339.64 90.3748 339.819C90.4637 342.956 91.0417 345.869 92.1088 348.558C93.2649 351.157 94.9101 353.263 97.0443 354.877C99.2675 356.49 101.891 357.297 104.914 357.297C107.404 357.297 109.494 356.938 111.184 356.221C112.873 355.414 114.252 354.518 115.319 353.532C116.386 352.546 117.142 351.74 117.586 351.112C118.387 350.037 119.009 349.409 119.454 349.23C119.987 348.961 120.743 348.827 121.722 348.827H133.193C134.082 348.827 134.794 349.096 135.327 349.633C135.95 350.171 136.217 350.843 136.128 351.65C136.039 353.084 135.283 354.832 133.86 356.893C132.526 358.955 130.57 360.971 127.991 362.943C125.412 364.915 122.166 366.573 118.253 367.918C114.43 369.173 110.028 369.8 105.048 369.8ZM90.3748 327.45H119.854V327.047C119.854 323.551 119.276 320.504 118.12 317.904C116.964 315.216 115.274 313.154 113.051 311.72C110.828 310.196 108.16 309.434 105.048 309.434C101.935 309.434 99.2675 310.196 97.0443 311.72C94.8211 313.154 93.1315 315.216 91.9755 317.904C90.9083 320.504 90.3748 323.551 90.3748 327.047V327.45Z"
    fill="url(#paint20_linear_504_1305)" />
  <path
    d="M182.034 369.8C172.163 369.8 164.337 366.932 158.557 361.196C152.777 355.459 149.664 347.303 149.22 336.727C149.131 335.83 149.086 334.71 149.086 333.366C149.086 331.931 149.131 330.811 149.22 330.004C149.576 323.193 151.087 317.367 153.755 312.527C156.512 307.597 160.291 303.833 165.093 301.233C169.895 298.544 175.542 297.2 182.034 297.2C189.237 297.2 195.284 298.724 200.175 301.771C205.066 304.729 208.757 308.897 211.246 314.274C213.736 319.563 214.981 325.702 214.981 332.693V335.517C214.981 336.413 214.67 337.175 214.048 337.802C213.425 338.43 212.625 338.743 211.647 338.743H167.361C167.361 338.743 167.361 338.878 167.361 339.147C167.361 339.416 167.361 339.64 167.361 339.819C167.45 342.956 168.028 345.869 169.095 348.558C170.251 351.157 171.896 353.263 174.031 354.877C176.254 356.49 178.877 357.297 181.901 357.297C184.391 357.297 186.48 356.938 188.17 356.221C189.86 355.414 191.238 354.518 192.305 353.532C193.372 352.546 194.128 351.74 194.573 351.112C195.373 350.037 195.995 349.409 196.44 349.23C196.974 348.961 197.73 348.827 198.708 348.827H210.179C211.069 348.827 211.78 349.096 212.314 349.633C212.936 350.171 213.203 350.843 213.114 351.65C213.025 353.084 212.269 354.832 210.846 356.893C209.512 358.955 207.556 360.971 204.977 362.943C202.398 364.915 199.152 366.573 195.24 367.918C191.416 369.173 187.014 369.8 182.034 369.8ZM167.361 327.45H196.84V327.047C196.84 323.551 196.262 320.504 195.106 317.904C193.95 315.216 192.261 313.154 190.037 311.72C187.814 310.196 185.146 309.434 182.034 309.434C178.921 309.434 176.254 310.196 174.031 311.72C171.807 313.154 170.118 315.216 168.962 317.904C167.895 320.504 167.361 323.551 167.361 327.047V327.45Z"
    fill="url(#paint21_linear_504_1305)" />
  <path
    d="M246.128 368.456C244.883 368.456 243.949 368.142 243.327 367.514C242.704 366.887 242.171 366.08 241.726 365.094L222.651 302.712C222.562 302.264 222.518 301.861 222.518 301.502C222.518 300.696 222.785 300.023 223.318 299.486C223.941 298.858 224.608 298.544 225.319 298.544H235.19C236.257 298.544 237.102 298.858 237.725 299.486C238.347 300.023 238.703 300.561 238.792 301.099L251.864 345.6L265.737 301.502C265.914 300.875 266.315 300.247 266.937 299.62C267.56 298.903 268.493 298.544 269.738 298.544H276.408C277.653 298.544 278.587 298.903 279.209 299.62C279.832 300.247 280.232 300.875 280.41 301.502L294.282 345.6L307.354 301.099C307.443 300.561 307.755 300.023 308.288 299.486C308.911 298.858 309.755 298.544 310.823 298.544H320.694C321.494 298.544 322.161 298.858 322.694 299.486C323.317 300.023 323.628 300.696 323.628 301.502C323.628 301.861 323.539 302.264 323.361 302.712L304.286 365.094C304.02 366.08 303.531 366.887 302.819 367.514C302.197 368.142 301.263 368.456 300.018 368.456H291.348C290.192 368.456 289.213 368.142 288.413 367.514C287.702 366.887 287.212 366.08 286.946 365.094L273.073 322.61L259.2 365.094C258.845 366.08 258.311 366.887 257.6 367.514C256.977 368.142 255.999 368.456 254.665 368.456H246.128Z"
    fill="url(#paint22_linear_504_1305)" />
  <path
    d="M354.666 369.8C350.042 369.8 345.863 368.904 342.128 367.111C338.393 365.229 335.414 362.764 333.191 359.717C331.056 356.58 329.989 353.084 329.989 349.23C329.989 342.956 332.524 337.981 337.592 334.307C342.661 330.542 349.286 328.033 357.468 326.778L375.742 324.089V321.266C375.742 317.501 374.808 314.588 372.941 312.527C371.073 310.465 367.872 309.434 363.337 309.434C360.135 309.434 357.512 310.107 355.467 311.451C353.51 312.706 352.043 314.409 351.065 316.56C350.353 317.725 349.331 318.308 347.997 318.308H337.459C336.481 318.308 335.725 318.039 335.191 317.501C334.747 316.963 334.524 316.246 334.524 315.35C334.613 313.916 335.191 312.168 336.259 310.107C337.415 308.045 339.104 306.073 341.327 304.191C343.639 302.219 346.619 300.561 350.265 299.217C353.911 297.872 358.312 297.2 363.47 297.2C369.073 297.2 373.786 297.917 377.61 299.351C381.522 300.696 384.635 302.533 386.947 304.863C389.259 307.194 390.949 309.927 392.016 313.064C393.083 316.201 393.617 319.518 393.617 323.013V365.229C393.617 366.125 393.305 366.887 392.683 367.514C392.06 368.142 391.304 368.456 390.415 368.456H379.611C378.632 368.456 377.832 368.142 377.209 367.514C376.676 366.887 376.409 366.125 376.409 365.229V359.986C375.253 361.599 373.697 363.167 371.74 364.691C369.784 366.215 367.383 367.47 364.537 368.456C361.781 369.352 358.49 369.8 354.666 369.8ZM359.202 357.028C362.314 357.028 365.115 356.356 367.605 355.011C370.184 353.667 372.185 351.605 373.608 348.827C375.12 345.959 375.876 342.373 375.876 338.071V335.248L362.537 337.399C357.29 338.206 353.377 339.505 350.798 341.298C348.219 343.09 346.93 345.286 346.93 347.886C346.93 349.857 347.508 351.56 348.664 352.994C349.909 354.339 351.465 355.37 353.333 356.087C355.2 356.714 357.156 357.028 359.202 357.028Z"
    fill="url(#paint23_linear_504_1305)" />
  <path
    d="M421.444 394C420.733 394 420.11 393.731 419.577 393.193C419.043 392.656 418.776 392.028 418.776 391.311C418.776 390.953 418.776 390.594 418.776 390.236C418.865 389.967 419.043 389.608 419.31 389.16L429.714 364.288L404.103 303.384C403.748 302.488 403.57 301.861 403.57 301.502C403.659 300.696 403.97 300.023 404.503 299.486C405.037 298.858 405.704 298.544 406.504 298.544H417.309C418.376 298.544 419.176 298.813 419.71 299.351C420.244 299.889 420.644 300.471 420.911 301.099L438.651 345.062L456.926 301.099C457.193 300.382 457.593 299.799 458.127 299.351C458.66 298.813 459.46 298.544 460.528 298.544H471.199C471.91 298.544 472.533 298.813 473.066 299.351C473.689 299.889 474 300.516 474 301.233C474 301.771 473.822 302.488 473.466 303.384L435.717 391.446C435.361 392.163 434.917 392.745 434.383 393.193C433.849 393.731 433.049 394 431.982 394H421.444Z"
    fill="url(#paint24_linear_504_1305)" />
  <defs>
    <linearGradient id="paint0_linear_504_1305" x1="45.9044" y1="233.768" x2="465.402" y2="237.715"
      gradientUnits="userSpaceOnUse">
      <stop stop-color="#EC7363" />
      <stop offset="1" stop-color="#EA6290" />
    </linearGradient>
    <linearGradient id="paint1_linear_504_1305" x1="45.9044" y1="233.768" x2="465.402" y2="237.715"
      gradientUnits="userSpaceOnUse">
      <stop stop-color="#EC7363" />
      <stop offset="1" stop-color="#EA6290" />
    </linearGradient>
    <linearGradient id="paint2_linear_504_1305" x1="45.9044" y1="233.768" x2="465.402" y2="237.715"
      gradientUnits="userSpaceOnUse">
      <stop stop-color="#EC7363" />
      <stop offset="1" stop-color="#EA6290" />
    </linearGradient>
    <linearGradient id="paint3_linear_504_1305" x1="45.9044" y1="233.768" x2="465.402" y2="237.715"
      gradientUnits="userSpaceOnUse">
      <stop stop-color="#EC7363" />
      <stop offset="1" stop-color="#EA6290" />
    </linearGradient>
    <linearGradient id="paint4_linear_504_1305" x1="45.9044" y1="233.768" x2="465.402" y2="237.715"
      gradientUnits="userSpaceOnUse">
      <stop stop-color="#EC7363" />
      <stop offset="1" stop-color="#EA6290" />
    </linearGradient>
    <linearGradient id="paint5_linear_504_1305" x1="45.9044" y1="233.768" x2="465.402" y2="237.715"
      gradientUnits="userSpaceOnUse">
      <stop stop-color="#EC7363" />
      <stop offset="1" stop-color="#EA6290" />
    </linearGradient>
    <linearGradient id="paint6_linear_504_1305" x1="45.9044" y1="233.768" x2="465.402" y2="237.715"
      gradientUnits="userSpaceOnUse">
      <stop stop-color="#EC7363" />
      <stop offset="1" stop-color="#EA6290" />
    </linearGradient>
    <linearGradient id="paint7_linear_504_1305" x1="45.9044" y1="233.768" x2="465.402" y2="237.715"
      gradientUnits="userSpaceOnUse">
      <stop stop-color="#EC7363" />
      <stop offset="1" stop-color="#EA6290" />
    </linearGradient>
    <linearGradient id="paint8_linear_504_1305" x1="45.9044" y1="233.768" x2="465.402" y2="237.715"
      gradientUnits="userSpaceOnUse">
      <stop stop-color="#EC7363" />
      <stop offset="1" stop-color="#EA6290" />
    </linearGradient>
    <linearGradient id="paint9_linear_504_1305" x1="45.9044" y1="233.768" x2="465.402" y2="237.715"
      gradientUnits="userSpaceOnUse">
      <stop stop-color="#EC7363" />
      <stop offset="1" stop-color="#EA6290" />
    </linearGradient>
    <linearGradient id="paint10_linear_504_1305" x1="45.9044" y1="233.768" x2="465.402" y2="237.715"
      gradientUnits="userSpaceOnUse">
      <stop stop-color="#EC7363" />
      <stop offset="1" stop-color="#EA6290" />
    </linearGradient>
    <linearGradient id="paint11_linear_504_1305" x1="45.9044" y1="233.768" x2="465.402" y2="237.715"
      gradientUnits="userSpaceOnUse">
      <stop stop-color="#EC7363" />
      <stop offset="1" stop-color="#EA6290" />
    </linearGradient>
    <linearGradient id="paint12_linear_504_1305" x1="45.9044" y1="233.768" x2="465.402" y2="237.715"
      gradientUnits="userSpaceOnUse">
      <stop stop-color="#EC7363" />
      <stop offset="1" stop-color="#EA6290" />
    </linearGradient>
    <linearGradient id="paint13_linear_504_1305" x1="45.9044" y1="233.768" x2="465.402" y2="237.715"
      gradientUnits="userSpaceOnUse">
      <stop stop-color="#EC7363" />
      <stop offset="1" stop-color="#EA6290" />
    </linearGradient>
    <linearGradient id="paint14_linear_504_1305" x1="45.9044" y1="233.768" x2="465.402" y2="237.715"
      gradientUnits="userSpaceOnUse">
      <stop stop-color="#EC7363" />
      <stop offset="1" stop-color="#EA6290" />
    </linearGradient>
    <linearGradient id="paint15_linear_504_1305" x1="45.9044" y1="233.768" x2="465.402" y2="237.715"
      gradientUnits="userSpaceOnUse">
      <stop stop-color="#EC7363" />
      <stop offset="1" stop-color="#EA6290" />
    </linearGradient>
    <linearGradient id="paint16_linear_504_1305" x1="45.9044" y1="233.768" x2="465.402" y2="237.715"
      gradientUnits="userSpaceOnUse">
      <stop stop-color="#EC7363" />
      <stop offset="1" stop-color="#EA6290" />
    </linearGradient>
    <linearGradient id="paint17_linear_504_1305" x1="45.9044" y1="233.768" x2="465.402" y2="237.715"
      gradientUnits="userSpaceOnUse">
      <stop stop-color="#EC7363" />
      <stop offset="1" stop-color="#EA6290" />
    </linearGradient>
    <linearGradient id="paint18_linear_504_1305" x1="45.9044" y1="233.768" x2="465.402" y2="237.715"
      gradientUnits="userSpaceOnUse">
      <stop stop-color="#EC7363" />
      <stop offset="1" stop-color="#EA6290" />
    </linearGradient>
    <linearGradient id="paint19_linear_504_1305" x1="39.1317" y1="348.101" x2="467.349" y2="352.585"
      gradientUnits="userSpaceOnUse">
      <stop stop-color="#EA6290" />
      <stop offset="1" stop-color="#EC7363" />
    </linearGradient>
    <linearGradient id="paint20_linear_504_1305" x1="39.1317" y1="348.101" x2="467.349" y2="352.585"
      gradientUnits="userSpaceOnUse">
      <stop stop-color="#EA6290" />
      <stop offset="1" stop-color="#EC7363" />
    </linearGradient>
    <linearGradient id="paint21_linear_504_1305" x1="39.1317" y1="348.101" x2="467.349" y2="352.585"
      gradientUnits="userSpaceOnUse">
      <stop stop-color="#EA6290" />
      <stop offset="1" stop-color="#EC7363" />
    </linearGradient>
    <linearGradient id="paint22_linear_504_1305" x1="39.1317" y1="348.101" x2="467.349" y2="352.585"
      gradientUnits="userSpaceOnUse">
      <stop stop-color="#EA6290" />
      <stop offset="1" stop-color="#EC7363" />
    </linearGradient>
    <linearGradient id="paint23_linear_504_1305" x1="39.1317" y1="348.101" x2="467.349" y2="352.585"
      gradientUnits="userSpaceOnUse">
      <stop stop-color="#EA6290" />
      <stop offset="1" stop-color="#EC7363" />
    </linearGradient>
    <linearGradient id="paint24_linear_504_1305" x1="39.1317" y1="348.101" x2="467.349" y2="352.585"
      gradientUnits="userSpaceOnUse">
      <stop stop-color="#EA6290" />
      <stop offset="1" stop-color="#EC7363" />
    </linearGradient>
  </defs>
</svg>
  
