<svg width="24" height="24" viewBox="0 0 24 24" fill="none" xmlns="http://www.w3.org/2000/svg">
  <path
    d="M16.4012 0C16.4571 0 16.513 0 16.572 0C16.709 1.69253 16.0629 2.95719 15.2778 3.87301C14.5074 4.78251 13.4525 5.6646 11.7463 5.53076C11.6324 3.86247 12.2795 2.69161 13.0636 1.77789C13.7908 0.92636 15.1239 0.168621 16.4012 0Z"
    fill="black" />
  <path
    d="M21.5663 17.6167C21.5663 17.6335 21.5663 17.6483 21.5663 17.6641C21.0868 19.1163 20.4028 20.361 19.5682 21.516C18.8062 22.5646 17.8725 23.9758 16.2052 23.9758C14.7646 23.9758 13.8077 23.0494 12.3312 23.0241C10.7693 22.9988 9.91042 23.7987 8.48241 24C8.31906 24 8.15571 24 7.99552 24C6.94691 23.8482 6.10065 23.0178 5.48413 22.2695C3.66618 20.0585 2.26136 17.2025 2 13.5476C2 13.1893 2 12.832 2 12.4737C2.11066 9.858 3.38164 7.73127 5.07101 6.70057C5.96259 6.15256 7.18825 5.68569 8.55302 5.89436C9.13793 5.98499 9.73548 6.18523 10.2593 6.38336C10.7556 6.57411 11.3764 6.9124 11.9644 6.89449C12.3628 6.88289 12.7591 6.67528 13.1606 6.52879C14.3367 6.10408 15.4897 5.61718 17.0094 5.84588C18.8357 6.12199 20.132 6.93348 20.9329 8.18549C19.388 9.16876 18.1665 10.6505 18.3752 13.1809C18.5607 15.4794 19.897 16.8241 21.5663 17.6167Z"
    fill="black" />
</svg>
  
