<svg width="24" height="24" viewBox="0 0 24 24" fill="none" xmlns="http://www.w3.org/2000/svg">
  <g clip-path="url(#clip0_34_1307)">
    <path fill-rule="evenodd" clip-rule="evenodd"
      d="M5.17107 12C5.17107 11.2205 5.30052 10.4733 5.53158 9.77235L1.4873 6.68399C0.699089 8.28435 0.255005 10.0876 0.255005 12C0.255005 13.9107 0.698543 15.7129 1.48566 17.3122L5.52776 14.2178C5.29889 13.5202 5.17107 12.7756 5.17107 12Z"
      fill="#FBBC05" />
    <path fill-rule="evenodd" clip-rule="evenodd"
      d="M12.2721 4.90909C13.9654 4.90909 15.4948 5.50909 16.6965 6.49091L20.1924 3C18.0621 1.14545 15.3309 0 12.2721 0C7.52314 0 3.44171 2.71582 1.4873 6.684L5.53159 9.77236C6.46345 6.94364 9.11977 4.90909 12.2721 4.90909Z"
      fill="#EB4335" />
    <path fill-rule="evenodd" clip-rule="evenodd"
      d="M12.2721 19.0909C9.11977 19.0909 6.46345 17.0564 5.53159 14.2276L1.4873 17.3155C3.44171 21.2842 7.52314 24 12.2721 24C15.2031 24 18.0015 22.9593 20.1017 21.0093L16.2628 18.0414C15.1796 18.7238 13.8157 19.0909 12.2721 19.0909Z"
      fill="#34A853" />
    <path fill-rule="evenodd" clip-rule="evenodd"
      d="M23.7428 12C23.7428 11.2909 23.6336 10.5273 23.4697 9.81818H12.272V14.4545H18.7175C18.3953 16.0353 17.518 17.2505 16.2628 18.0414L20.1017 21.0093C22.3079 18.9616 23.7428 15.9114 23.7428 12Z"
      fill="#4285F4" />
  </g>
  <defs>
    <clipPath id="clip0_34_1307">
      <rect width="24" height="24" fill="white" />
    </clipPath>
  </defs>
</svg>
  
